<?xml version="1.0" encoding="UTF-8"?>
<svg xmlns="http://www.w3.org/2000/svg" xmlns:xlink="http://www.w3.org/1999/xlink" width="50px" height="50px" viewBox="0 0 50 50" version="1.1">
<g id="surface1">
<path style=" stroke:none;fill-rule:nonzero;fill:rgb(46.27451%,29.019609%,73.725492%);fill-opacity:1;" d="M 34.644531 34.324219 C 36.488281 34.132812 37.890625 32.542969 37.824219 30.632812 C 37.761719 28.722656 36.171875 27.195312 34.261719 27.195312 L 34.136719 27.195312 C 32.164062 27.261719 30.636719 28.914062 30.699219 30.886719 C 30.761719 31.839844 31.144531 32.667969 31.71875 33.242188 C 29.554688 37.503906 26.246094 40.621094 21.28125 43.230469 C 17.910156 45.011719 14.410156 45.648438 10.910156 45.203125 C 8.046875 44.820312 5.820312 43.550781 4.421875 41.449219 C 2.386719 38.332031 2.195312 34.960938 3.914062 31.585938 C 5.121094 29.167969 7.03125 27.386719 8.238281 26.496094 C 7.984375 25.667969 7.601562 24.269531 7.414062 23.25 C -1.8125 29.933594 -0.859375 38.96875 1.941406 43.230469 C 4.039062 46.414062 8.304688 48.386719 13.011719 48.386719 C 14.285156 48.386719 15.554688 48.257812 16.828125 47.941406 C 24.972656 46.347656 31.144531 41.511719 34.644531 34.324219 Z M 45.84375 26.433594 C 41.007812 20.769531 33.882812 17.652344 25.738281 17.652344 L 24.71875 17.652344 C 24.144531 16.507812 22.9375 15.742188 21.601562 15.742188 L 21.472656 15.742188 C 19.5 15.808594 17.976562 17.460938 18.039062 19.433594 C 18.101562 21.34375 19.691406 22.871094 21.601562 22.871094 L 21.726562 22.871094 C 23.128906 22.804688 24.335938 21.914062 24.847656 20.707031 L 25.992188 20.707031 C 30.828125 20.707031 35.40625 22.105469 39.542969 24.84375 C 42.726562 26.941406 45.015625 29.679688 46.289062 32.988281 C 47.371094 35.660156 47.304688 38.269531 46.160156 40.496094 C 44.378906 43.867188 41.390625 45.710938 37.445312 45.710938 C 34.898438 45.710938 32.480469 44.949219 31.207031 44.375 C 30.507812 45.011719 29.238281 46.03125 28.34375 46.667969 C 31.082031 47.9375 33.882812 48.640625 36.554688 48.640625 C 42.660156 48.640625 47.179688 45.265625 48.898438 41.894531 C 50.742188 38.203125 50.613281 31.839844 45.84375 26.433594 Z M 13.519531 35.40625 C 13.585938 37.3125 15.175781 38.839844 17.082031 38.839844 L 17.210938 38.839844 C 19.183594 38.777344 20.710938 37.121094 20.648438 35.148438 C 20.582031 33.242188 18.992188 31.714844 17.082031 31.714844 L 16.957031 31.714844 C 16.828125 31.714844 16.636719 31.714844 16.511719 31.777344 C 13.902344 27.449219 12.820312 22.742188 13.203125 17.652344 C 13.457031 13.832031 14.730469 10.523438 16.957031 7.789062 C 18.800781 5.433594 22.363281 4.289062 24.78125 4.226562 C 31.527344 4.097656 34.390625 12.496094 34.582031 15.871094 C 35.410156 16.0625 36.808594 16.507812 37.761719 16.824219 C 37 6.515625 30.636719 1.171875 24.527344 1.171875 C 18.800781 1.171875 13.519531 5.308594 11.421875 11.417969 C 8.492188 19.5625 10.402344 27.386719 13.964844 33.558594 C 13.648438 34.003906 13.457031 34.703125 13.519531 35.40625 Z M 13.519531 35.40625 "/>
</g>
</svg>
